<svg width="256" height="256" viewBox="0 0 256 256" fill="none" xmlns="http://www.w3.org/2000/svg">
<rect width="256" height="256" fill="white"/>
<g clip-path="url(#clip0_102_101)">
<path d="M189.833 128C189.833 147.08 181.177 164.747 166.248 176.583C160.153 181.353 156.178 187.625 154.942 194.338C154.765 194.25 154.677 194.25 154.5 194.25H101.5C101.323 194.25 101.058 194.25 100.882 194.338C99.645 187.36 96.0233 181.265 90.8116 177.378C71.555 162.803 62.545 138.953 67.4916 114.927C72.35 91.5184 91.3416 72.4384 114.75 67.5801C133.388 63.6051 152.468 68.1984 166.955 79.9467C181.53 91.7834 189.833 109.273 189.833 128Z" fill="#FFDF92"/>
<path d="M154.942 194.338C154.677 195.84 154.5 197.342 154.5 198.932V218.542C154.5 227.022 147.522 234 139.042 234H116.958C109.539 234 101.5 228.347 101.5 215.98V200.345C101.5 198.313 101.324 196.282 100.882 194.338C101.059 194.25 101.323 194.25 101.5 194.25H154.5C154.677 194.25 154.765 194.25 154.942 194.338Z" fill="#607D8B"/>
<path d="M147.875 207.5H108.125C104.468 207.5 101.5 204.532 101.5 200.875C101.5 197.218 104.468 194.25 108.125 194.25H147.875C151.532 194.25 154.5 197.218 154.5 200.875C154.5 204.532 151.532 207.5 147.875 207.5Z" fill="#0F2A4C"/>
<path d="M128 52.5368C124.343 52.5368 121.375 49.5688 121.375 45.9118V28.625C121.375 24.968 124.343 22 128 22C131.657 22 134.625 24.968 134.625 28.625V45.9118C134.625 49.5688 131.657 52.5368 128 52.5368Z" fill="#0F2A4C"/>
<path d="M186.044 76.5812C184.348 76.5812 182.652 75.9364 181.362 74.6379C178.774 72.0497 178.774 67.8539 181.362 65.2657L193.587 53.0404C196.176 50.4522 200.371 50.4522 202.96 53.0404C205.548 55.6285 205.548 59.8244 202.96 62.4125L190.734 74.6379C189.436 75.9275 187.74 76.5812 186.044 76.5812V76.5812Z" fill="#0F2A4C"/>
<path d="M227.375 134.625H210.088C206.431 134.625 203.463 131.657 203.463 128C203.463 124.343 206.431 121.375 210.088 121.375H227.375C231.032 121.375 234 124.343 234 128C234 131.657 231.032 134.625 227.375 134.625Z" fill="#0F2A4C"/>
<path d="M198.269 204.894C196.573 204.894 194.877 204.249 193.587 202.951L181.362 190.726C178.774 188.137 178.774 183.942 181.362 181.353C183.95 178.765 188.146 178.765 190.734 181.353L202.96 193.579C205.548 196.167 205.548 200.363 202.96 202.951C201.661 204.249 199.965 204.894 198.269 204.894Z" fill="#0F2A4C"/>
<path d="M57.7307 204.894C56.0347 204.894 54.3387 204.249 53.049 202.951C50.4609 200.363 50.4609 196.167 53.049 193.579L65.2744 181.353C67.8625 178.765 72.0584 178.765 74.6465 181.353C77.2347 183.942 77.2347 188.137 74.6465 190.726L62.4212 202.951C61.1227 204.249 59.4267 204.894 57.7307 204.894V204.894Z" fill="#0F2A4C"/>
<path d="M45.9118 134.625H28.625C24.968 134.625 22 131.657 22 128C22 124.343 24.968 121.375 28.625 121.375H45.9118C49.5688 121.375 52.5368 124.343 52.5368 128C52.5368 131.657 49.5688 134.625 45.9118 134.625Z" fill="#0F2A4C"/>
<path d="M69.956 76.5812C68.26 76.5812 66.564 75.9364 65.2744 74.6379L53.049 62.4125C50.4609 59.8244 50.4609 55.6285 53.049 53.0404C55.6372 50.4522 59.833 50.4522 62.4212 53.0404L74.6465 65.2657C77.2347 67.8539 77.2347 72.0497 74.6465 74.6379C73.3392 75.9275 71.652 76.5812 69.956 76.5812V76.5812Z" fill="#0F2A4C"/>
<path d="M161.125 132.417C157.468 132.417 154.5 129.449 154.5 125.792C154.5 112.391 143.609 101.5 130.208 101.5C126.551 101.5 123.583 98.532 123.583 94.875C123.583 91.218 126.551 88.25 130.208 88.25C150.905 88.25 167.75 105.095 167.75 125.792C167.75 129.449 164.782 132.417 161.125 132.417Z" fill="#0F2A4C"/>
<path d="M139.042 234H116.958C109.512 234 101.5 228.347 101.5 215.945V200.363C101.5 190.991 97.5073 182.387 90.8204 177.352C71.5196 162.821 62.5891 138.918 67.5092 114.971C72.3234 91.5096 91.3062 72.4561 114.741 67.5536C133.379 63.6316 152.442 68.1719 166.981 79.9909C181.503 91.7922 189.833 109.291 189.833 128C189.833 147.062 181.221 164.756 166.204 176.566C158.766 182.413 154.5 190.558 154.5 198.905V218.542C154.5 227.066 147.566 234 139.042 234V234ZM127.876 79.4344C124.414 79.4344 120.924 79.7966 117.435 80.5209C99.0972 84.3546 84.2484 99.2652 80.4766 117.63C76.5987 136.507 83.6124 155.339 98.7793 166.761C108.77 174.287 114.741 186.848 114.741 200.363V215.945C114.741 216.749 114.847 220.75 116.949 220.75H139.033C140.252 220.75 141.241 219.761 141.241 218.542V198.905C141.241 186.459 147.354 174.525 158.007 166.142C169.817 156.867 176.583 142.964 176.583 128C176.583 113.301 170.029 99.5479 158.616 90.2729C149.889 83.1886 139.068 79.4344 127.876 79.4344V79.4344Z" fill="#0F2A4C"/>
</g>
<defs>
<clipPath id="clip0_102_101">
<rect width="212" height="212" fill="white" transform="translate(22 22)"/>
</clipPath>
</defs>
</svg>
